<?xml version="1.0" encoding="utf-8"?>
<!-- Generator: Adobe Illustrator 24.0.3, SVG Export Plug-In . SVG Version: 6.00 Build 0)  -->
<svg version="1.1" id="Camada_1" xmlns="http://www.w3.org/2000/svg" xmlns:xlink="http://www.w3.org/1999/xlink" x="0px" y="0px"
	 width="402px" height="243px" viewBox="0 0 402 243" enable-background="new 0 0 402 243" xml:space="preserve">
<g id="_x30_800">
	<g id="HOME-0800-ALGAR-TELECOM_1440" transform="translate(-894.000000, -717.000000)">
		<g id="Primeiro-Conteudo" transform="translate(0.000000, 693.000000)">
			<g id="Ilustator-3" transform="translate(894.000000, 24.000000)">
				<g id="Group" transform="translate(148.000000, 119.000000)">
					<path id="Shape" fill-rule="evenodd" clip-rule="evenodd" fill="#B1C5E0" d="M73.6,36.8C84.4,2,147.6,9.6,149.1,56.7
						c7.5-5.2,36.1-4.1,40.7,23.4c1.4,8.1,3.6,38.9-24.1,38.9H30.6C4.9,119,1.2,104.9,1.2,91.6c0-16.8,18-26.4,33.2-23.4
						C20.4,45.4,51.4,23.9,73.6,36.8z"/>
					<path id="Shape_1_" fill-rule="evenodd" clip-rule="evenodd" fill="#A3BAD3" d="M153,24.5c9.3-29.5,63-23.1,64.2,16.8
						c6.4-4.5,30.7-3.5,34.6,20c1.2,6.9,3.1,33.1-20.5,33.1H116.6c-21.9,0-25-12-25-23.3c0-14.3,15.3-22.5,28.3-19.9
						C108,31.9,134.2,13.7,153,24.5z"/>
				</g>
				<path id="Shape_2_" fill-rule="evenodd" clip-rule="evenodd" fill="#D1E4D8" d="M50.9,140.6c4.1-13.2,19-17.6,31.8-13.7
					c-3.7,2.5-6.6,6.1-8.2,10.5c-0.7,2.1-1.2,4.2-1.2,6.3C63.9,146,56,153.8,56,164.6c0,15.7,8.8,23.7,24.8,23.7H130
					c-2.2,5.4-6.6,9.8-15.3,9.8H21.2c-17.9,0-20.4-9.9-20.4-19.1c0-11.8,12.5-18.5,23-16.4C14.2,146.6,35.5,131.5,50.9,140.6z
					 M105.9,132c-13-7.6-31.2,5-23,18.6c-9-1.8-19.6,3.9-19.6,13.9c0,7.9,2.2,16.3,17.4,16.3h79.5c16.2,0,15-18.3,14.1-23.1
					c-2.7-16.4-19.6-17-24-14C149.6,115.8,112.3,111.4,105.9,132z"/>
				<path id="Shape_3_" fill-rule="evenodd" clip-rule="evenodd" fill="#C6C6C6" d="M103.9,183.1v1h-2.1v-1H103.9z M156.7,125.1v0.8
					h1.1v-0.8H156.7z M156.7,127h1.1v2.1h-1.1V127z M156.7,130.2h1.1v2.1h-1.1V130.2z M156.7,133.3h1.1v2.1h-1.1V133.3z
					 M156.7,136.4h1.1v2.1h-1.1V136.4z M156.7,139.6h1.1v2.1h-1.1V139.6z M156.7,142.7h1.1v2.1h-1.1V142.7z M156.7,145.9h1.1v2.1
					h-1.1V145.9z M156.7,149h1.1v2.1h-1.1V149z M156.7,152.2h1.1v2.1h-1.1V152.2z M156.7,155.3h1.1v2.1h-1.1V155.3z M156.7,158.5
					h1.1v2.1h-1.1V158.5z M156.7,161.6h1.1v2.1h-1.1V161.6z M156.7,164.7h1.1v2.1h-1.1V164.7z M156.7,167.9h1.1v2.1h-1.1V167.9z
					 M156.7,171h1.1v2.1h-1.1V171z M156.7,174.2h1.1v2.1h-1.1V174.2z M156.7,177.3h1.1v0.5l-1.1-0.3V177.3z M156.2,180.1
					c-0.3,0.6-0.6,1-1.2,1.6l0.7,0.7c0.5-0.5,1-1.2,1.4-1.9L156.2,180.1z M154.4,182.2c-0.5,0.3-1.2,0.6-1.8,0.7l0.2,1
					c0.7-0.2,1.5-0.4,2.1-0.8L154.4,182.2z M151.6,183.1v1h-2.1v-1H151.6z M148.4,183.1v1h-2.1v-1H148.4z M145.2,183.1v1h-2.1v-1
					H145.2z M142.1,183.1v1h-2.1v-1H142.1z M138.9,183.1v1h-2.1v-1H138.9z M135.7,183.1v1h-2.1v-1H135.7z M132.5,183.1v1h-2.1v-1
					H132.5z M129.3,183.1v1h-2.1v-1H129.3z M126.2,183.1v1H124v-1H126.2z M123,183.1v1h-2.1v-1H123z M119.8,183.1v1h-2.1v-1H119.8z
					 M116.6,183.1v1h-2.1v-1H116.6z M113.4,183.1v1h-2.1v-1H113.4z M110.2,183.1v1h-2.1v-1H110.2z M107.1,183.1v1h-2.1v-1H107.1z"/>
				<path id="Shape_4_" fill-rule="evenodd" clip-rule="evenodd" fill="#C6C6C6" d="M305.7,199.1v-2h1v2H305.7z M226.8,212.1h2.1v1
					h-2.1V212.1z M229.9,212.1h2.1v1h-2.1V212.1z M233.1,212.1h2.1v1h-2.1V212.1z M236.2,212.1h2.1v1h-2.1V212.1z M239.3,212.1h2.1
					v1h-2.1V212.1z M242.5,212.1h2.1v1h-2.1V212.1z M245.6,212.1h2.1v1h-2.1V212.1z M248.8,212.1h2.1v1h-2.1V212.1z M251.9,212.1
					h2.1v1h-2.1V212.1z M255.1,212.1h2.1v1h-2.1V212.1z M258.2,212.1h2.1v1h-2.1V212.1z M261.4,212.1h2.1v1h-2.1V212.1z
					 M264.5,212.1h2.1v1h-2.1V212.1z M267.7,212.1h2.1v1h-2.1V212.1z M270.8,212.1h2.1v1h-2.1V212.1z M273.9,212.1h2.1v1h-2.1V212.1
					z M277.1,212.1h2.1v1h-2.1V212.1z M280.2,212.1h2.1v1h-2.1V212.1z M283.4,212.1h2.1v1h-2.1V212.1z M286.5,212.1h2.1v1h-2.1
					V212.1z M289.7,212.1h2.1v1h-2.1V212.1z M292.8,212.1h2.1v1h-2.1V212.1z M296,212.1h2.1v1H296V212.1z M299.1,212.1h1.4l0.1,1
					h-1.4v-1H299.1z M302,211.9l0.3,1c0.6-0.2,1.5-0.6,2-1l-0.6-0.8C303.2,211.4,302.7,211.7,302,211.9z M304.5,210.4l0.7,0.7
					c0.5-0.5,0.9-1.2,1.2-1.9l-0.9-0.3C305.2,209.4,304.9,209.9,304.5,210.4z M305.6,208l1,0.2V207h-1v1.2V208z M305.7,205.1v-2h1v2
					H305.7z M305.7,200.1h1v2h-1V200.1z"/>
				<path id="Shape_5_" fill-rule="evenodd" clip-rule="evenodd" fill="#C6C6C6" d="M290.7,26.1h1v2h-1V26.1z M211.8,13.1v-1h2.1v1
					H211.8z M214.9,13.1v-1h2.1v1H214.9z M218.1,13.1v-1h2.1v1H218.1z M221.2,13.1v-1h2.1v1H221.2z M224.3,13.1v-1h2.1v1H224.3z
					 M227.5,13.1v-1h2.1v1H227.5z M230.6,13.1v-1h2.1v1H230.6z M233.8,13.1v-1h2.1v1H233.8z M236.9,13.1v-1h2.1v1H236.9z
					 M240.1,13.1v-1h2.1v1H240.1z M243.2,13.1v-1h2.1v1H243.2z M246.4,13.1v-1h2.1v1H246.4z M249.5,13.1v-1h2.1v1H249.5z
					 M252.7,13.1v-1h2.1v1H252.7z M255.8,13.1v-1h2.1v1H255.8z M258.9,13.1v-1h2.1v1H258.9z M262.1,13.1v-1h2.1v1H262.1z
					 M265.2,13.1v-1h2.1v1H265.2z M268.4,13.1v-1h2.1v1H268.4z M271.5,13.1v-1h2.1v1H271.5z M274.7,13.1v-1h2.1v1H274.7z
					 M277.8,13.1v-1h2.1v1H277.8z M281,13.1v-1h2.1v1H281z M284.1,13.1v-1h1.4l-0.1,1H284.1z M287,13.3c0.6,0.2,1.2,0.5,1.7,0.8
					l0.6-0.8c-0.5-0.4-1.3-0.8-2-1L287,13.3z M289.5,14.8c0.4,0.5,0.7,1,0.9,1.5l0.9-0.3c-0.2-0.7-0.6-1.3-1.2-1.9L289.5,14.8z
					 M290.6,17.2L290.6,17.2v1.3h1v-1.2L290.6,17.2z M290.7,20.1h1v2h-1V20.1z M290.7,23.1h1v2h-1V23.1z"/>
				<g id="Group_1_" transform="translate(84.000000, 69.000000)">
					<path id="Shape_6_" fill-rule="evenodd" clip-rule="evenodd" fill="#FFFAD2" d="M55.6,15.4C58.2,3.6,78,3.6,82.3,13.9
						c13.3-5.6,24.6,6.7,18.5,18.5c8.3-1.5,17.8,3.7,17.8,12.8c0,7.2-2.1,15.9-15.9,14.8H32.4c-13.9,0-15.9-7.6-15.9-14.8
						c0-9.1,9.8-14.3,18-12.8C26.9,20.1,43.7,8.5,55.6,15.4z"/>
					<ellipse id="Oval" fill-rule="evenodd" clip-rule="evenodd" fill="#FFFAD2" cx="20.6" cy="78.1" rx="11.6" ry="11.6"/>
					<path id="Shape_7_" fill-rule="evenodd" clip-rule="evenodd" fill="#FFFAD2" d="M7.7,108.7c3.8,0,6.9-3.1,6.9-6.9
						s-3.1-6.9-6.9-6.9s-6.9,3.1-6.9,6.9S3.9,108.7,7.7,108.7z"/>
				</g>
				<g id="Group_2_" transform="translate(104.000000, 37.000000)">
					<path id="Shape_8_" fill-rule="evenodd" clip-rule="evenodd" fill="#B1C5E0" d="M81.6,6.5H8c-3.9,0-7.1,3.3-7.1,7.2v51.2
						c0,3.9,3.2,7.2,7.1,7.2h73.6c3.9,0,7.1-3.3,7.1-7.2V13.7C88.7,9.7,85.5,6.5,81.6,6.5z"/>
					<g id="Rectangle-path" transform="translate(7.885490, 12.200505)">
						<rect x="1" y="6.3" fill-rule="evenodd" clip-rule="evenodd" fill="#B1C5E0" width="72" height="2.1"/>
						<rect x="1" y="14.4" fill-rule="evenodd" clip-rule="evenodd" fill="#B1C5E0" width="72" height="2.1"/>
						<rect x="1" y="22.6" fill-rule="evenodd" clip-rule="evenodd" fill="#B1C5E0" width="72" height="2.1"/>
						<rect x="1" y="30.8" fill-rule="evenodd" clip-rule="evenodd" fill="#B1C5E0" width="72" height="2.1"/>
						<rect x="1" y="38.9" fill-rule="evenodd" clip-rule="evenodd" fill="#B1C5E0" width="72" height="2.1"/>
						<rect x="1" y="47.4" fill-rule="evenodd" clip-rule="evenodd" fill="#B1C5E0" width="72" height="2.1"/>
					</g>
					<polygon id="Shape_9_" fill-rule="evenodd" clip-rule="evenodd" fill="#B1C5E0" points="38.1,71.4 6.4,90.3 19.2,63.8 					"/>
				</g>
				<g id="Group_3_" transform="translate(277.000000, 153.000000)">
					<path id="Shape_10_" fill-rule="evenodd" clip-rule="evenodd" fill="#3A3A3A" d="M3.9,56.6l63.7-0.1c1.6,0,2.8-1.3,2.8-2.8V9.2
						c0-1.6-1.3-2.8-2.8-2.8L3.9,6.6c-1.6,0-2.8,1.3-2.8,2.8v44.5C1.1,55.3,2.4,56.6,3.9,56.6z"/>
					
						<rect id="Rectangle-path_1_" x="6.5" y="10.9" fill-rule="evenodd" clip-rule="evenodd" fill="#E2E3E6" width="58.5" height="41.2"/>
					<path id="Shape_11_" fill-rule="evenodd" clip-rule="evenodd" fill="#C2DEE1" d="M35.8,7.7c0.6,0,1.1,0.4,1.1,1.1
						s-0.4,1.1-1.1,1.1s-1.1-0.4-1.1-1.1S35.1,7.7,35.8,7.7z"/>
					<path id="Shape_12_" fill-rule="evenodd" clip-rule="evenodd" fill="#FFFAD2" d="M32.3,13.7H61c1.4,0,2.5,1.2,2.5,2.6v6.2
						c0,1.4-1.2,2.6-2.5,2.6H32.3c-1.4,0-2.5-1.2-2.5-2.6v-6.2C29.7,14.9,30.9,13.7,32.3,13.7z"/>
					<path id="Shape_13_" fill-rule="evenodd" clip-rule="evenodd" fill="#B1C5E0" d="M32.2,19.3c0,2.7,1,3,2.4,3s2.4-0.3,2.4-3
						c0-2.8-1.1-3-2.4-3S32.2,16.6,32.2,19.3z M33.7,19.3c0-1.4,0.2-1.6,0.8-1.6c0.7,0,0.8,0.2,0.8,1.6c0,1.3-0.2,1.5-0.8,1.5
						C33.7,20.8,33.7,20.5,33.7,19.3z M37.6,22.2h1.6v-2.9l1.7,2.9h1.6v-5.9h-1.6v3l-1.7-3h-1.6V22.2z M42.8,20.5h2.5v-1.3h-2.5
						V20.5z M45.8,20.9c0,1,0.6,1.3,1.4,1.3h2.3v-1.4h-1.7c-0.2,0-0.5,0-0.5-0.4v-4h-1.6v4.6H45.8z M50,22.2h1.6v-5.9H50V22.2z
						 M52.2,22.2h1.6v-2.9l1.7,2.9h1.6v-5.9h-1.6v3l-1.7-3h-1.6V22.2z M57.5,20.9c0,1.3,1.1,1.3,1.6,1.3c0,0,1.7,0,2.5-0.1v-1.3h-2
						c-0.2,0-0.5,0-0.5-0.4v-0.3l2.1-0.1v-1.3l-2.1-0.1v-0.3c0-0.2,0-0.4,0.4-0.4h2.1v-1.3c-1-0.1-2.7-0.1-2.7-0.1
						c-0.5,0-1.5,0.1-1.5,1.4V20.9z"/>
					<g id="Shape_14_" transform="translate(49.848485, 14.913889)">
						<path fill-rule="evenodd" clip-rule="evenodd" fill="#FFDBA7" d="M3,14.8L2.1,9.6c-0.3-2.8,0.4-3.5,1-3.5
							c0.4,0,0.7,0.2,1.2,1.7c0.3,1.1,0.4,2.7,0.7,3.7c0.2,0.7,0.3,1.3,0.4,1.8c0.2-0.7,0.4-1.3,1.5-1.3c0.6,0,1.7,0,2.1,0.3
							c0.3,0.2,0.4,0.6,0.6,1.4c0.7-0.4,1.5-0.3,1.9,0c0.6,0.4,0.5,1.9,0.7,2.7c1-0.3,1.6,0.3,1.8,1.2c0.3,1.2,0.1,3.3,0.2,4.7
							c0.1,1.9,0,3.5-0.2,4.9c-0.5,3-1,4.2-1.1,6.2c0,0.9,0.1,5.8,0.2,8.2H6.5c0-2.2-0.2-7.5-0.5-8.3c-0.8-3-3.1-3.2-4.2-7.5
							c-0.4-1.5-0.3-2.8-0.3-5.4c0-1.2-0.1-2.3-0.2-3.4l0.4-0.4c1.2-0.1,1.7,0.4,1.8,0.9C3.4,16.9,3.2,15.5,3,14.8z M5.6,14.1
							c0.2,0.6,0.3,1.1,0.6,1.6c0.4,0.7,0.8,2.8,1.5,3.6c-0.3-1.5-0.5-3.2-1.1-4.2C6.5,14.8,6.2,14.3,5.6,14.1z"/>
						<path fill-rule="evenodd" clip-rule="evenodd" fill="#FC611F" d="M2.5,6.4L2.7,8c0,0.4,0.3,0.7,0.6,0.6c0.3,0,0.5-0.3,0.5-0.7
							L3.6,6.3c0-0.2-0.3-0.2-0.5-0.2C2.8,6.1,2.5,6.1,2.5,6.4z"/>
						<path fill-rule="evenodd" clip-rule="evenodd" fill="#EEBE69" d="M13.8,16.9c-0.3-0.4-0.8-0.6-1.5-0.4
							c-0.1-0.3-0.1-0.9-0.2-1.4c0,1.1-0.2,1.7,0,2.7c0,0.2,0.3,1.9,0.3,1.9c0.2,0.3,0.1-0.6,0.1-1.4c-0.1-0.6-0.1-1.2,0-1.3
							c0.2-0.4,0.6-0.4,1-0.4C13.5,16.8,13.6,16.9,13.8,16.9z M6.9,16.1c-0.1,0.1-0.3,0.2-0.4,0.1c-0.3-0.4-0.7-1.6-1-2l-0.2-0.6
							c0.1,0,0.2,0,0.4,0s0.3,0.4,0.5,0.5c0.2,0.1,0.5,0.1,0.7,0.3c0.3,0.5,0.4,1.8,0.6,3c0.1,1,0.5,2.3,0.4,2.2
							c-0.3-0.1-0.7-1.5-0.8-2.1C7,17.1,7,16.6,6.9,16.1z M10,13.7c-0.1,0-0.2,0.1-0.3,0.1c-0.1-0.3-0.1-0.5-0.2-0.7
							c0,0.2,0,0.4,0,0.4c0,1.1,0.2,3,0.5,4.4c0.2,0.9,0.4,1.6,0.6,1.5c0.1-0.1-0.1-0.6-0.2-1.3c-0.2-1.2-0.5-2.8-0.3-4.2
							C10,13.8,10,13.8,10,13.7z M1.5,16.8c0,0.1-0.1,0.1-0.1,0.1c0,1,0.1,2.3,0.1,3.6c0,2.7-0.1,3.9,0.3,5.5
							c1.2,4.3,3.4,4.3,4.2,7.5c0.2,0.9,0.5,6,0.5,8.2h1.3c-0.1-2.1-0.3-6.9-0.6-7.8c-1-3.6-3.5-4.9-4.2-7.4c-0.4-1.4-1.1-3.2-1-5.8
							c0.1-2.5-0.2-3.5-0.2-3.6c3,0,1.7,4.2,2.2,6.4c0-2.2,1.4-7.1-2.2-6.9C1.6,16.7,1.6,16.8,1.5,16.8z"/>
						<path fill-rule="evenodd" clip-rule="evenodd" fill="#FC611F" d="M1.3,17.3l0.1,1.3c0,0.5,0.2,0.9,0.4,0.7
							c0.3-0.1,0.3-0.5,0.3-1L2,16.9c0-0.1-0.2-0.3-0.4-0.3C1.3,16.7,1.3,16.9,1.3,17.3z"/>
					</g>
				</g>
				<path id="Shape_15_" fill-rule="evenodd" clip-rule="evenodd" fill="#C6C6C6" d="M336.7,157.1h1v2.1h-1V157.1z M320.8,120.2h2
					v-1h-2V120.2z M323.7,120.2v-1h2.1v1H323.7z M326.8,120.2v-1h2.1v1H326.8z M329.9,120.2v-1h2.1v1H329.9z M333,120.2v-1h1.6
					l-0.5,0.9H333V120.2z M335.5,120.8c0.1,0.2,0.3,0.3,0.4,0.5c0.2,0.3,0.4,0.7,0.5,1.1l0.9-0.3c-0.3-0.7-0.6-1.3-1.1-1.9
					L335.5,120.8z M336.6,123.2v0.1v1h1v-1L336.6,123.2z M336.7,126.2h1v2.1h-1V126.2z M336.7,129.3h1v2.1h-1V129.3z M336.7,132.4h1
					v2.1h-1V132.4z M336.7,135.5h1v2.1h-1V135.5z M336.7,138.6h1v2.1h-1V138.6z M336.7,141.6h1v2.1h-1V141.6z M336.7,144.7h1v2.1h-1
					V144.7z M336.7,147.8h1v2.1h-1V147.8z M336.7,150.9h1v2.1h-1V150.9z M336.7,154h1v2.1h-1V154z"/>
				<path id="Shape_16_" fill-rule="evenodd" clip-rule="evenodd" fill="#C6C6C6" d="M304.7,74.2h-1v-2.1h1V74.2z M318.8,119.1h-1.1
					v1.1h1.1V119.1z M316.7,119.1v1.1h-1.9v-1.1H316.7z M313.8,119.1v1.1h-1.9v-1.1H313.8z M310.9,119.1v1.1h-1.9v-1.1H310.9z
					 M307.9,119.1c-0.6-0.1-1.1-0.3-1.6-0.6l-0.6,0.8c0.6,0.4,1.3,0.7,2,0.8L307.9,119.1z M305.8,117.8c-0.4-0.5-0.7-1.1-0.9-1.6
					l-1,0.3c0.2,0.7,0.6,1.5,1.1,2L305.8,117.8z M304.7,115.2v-0.1v-1.9h-1v1.6L304.7,115.2z M304.7,112.1h-1V110h1V112.1z
					 M304.7,109h-1v-2.1h1V109z M304.7,105.8h-1v-2.1h1V105.8z M304.7,102.7h-1v-2.1h1V102.7z M304.7,99.5h-1v-2.1h1V99.5z
					 M304.7,96.3h-1v-2.1h1V96.3z M304.7,93.2h-1v-2.1h1V93.2z M304.7,90h-1v-2.1h1V90z M304.7,86.9h-1v-2.1h1V86.9z M304.7,83.7h-1
					v-2.1h1V83.7z M304.7,80.6h-1v-2.1h1V80.6z M304.7,77.4h-1v-2.1h1V77.4z"/>
				<path id="Shape_17_" fill-rule="evenodd" clip-rule="evenodd" fill="#C6C6C6" d="M72.8,210.1h-1v-2h1V210.1z M151.8,223.1v1
					h-2.1v-1H151.8z M148.6,223.1v1h-2.1v-1H148.6z M145.5,223.1v1h-2.1v-1H145.5z M142.3,223.1v1h-2.1v-1H142.3z M139.2,223.1v1
					h-2.1v-1H139.2z M136.1,223.1v1H134v-1H136.1z M132.9,223.1v1h-2.1v-1H132.9z M129.8,223.1v1h-2.1v-1H129.8z M126.6,223.1v1
					h-2.1v-1H126.6z M123.5,223.1v1h-2.1v-1H123.5z M120.3,223.1v1h-2.1v-1H120.3z M117.2,223.1v1h-2.1v-1H117.2z M114.1,223.1v1
					H112v-1H114.1z M110.9,223.1v1h-2.1v-1H110.9z M107.8,223.1v1h-2.1v-1H107.8z M104.6,223.1v1h-2.1v-1H104.6z M101.5,223.1v1
					h-2.1v-1H101.5z M98.4,223.1v1h-2.1v-1H98.4z M95.2,223.1v1h-2.1v-1H95.2z M92.1,223.1v1H90v-1H92.1z M88.9,223.1v1h-2.1v-1
					H88.9z M85.8,223.1v1h-2.1v-1H85.8z M82.7,223.1v1h-2.1v-1H82.7z M79.5,223.1v1h-1.4l0.1-1H79.5z M76.5,222.9
					c-0.6-0.2-1.2-0.5-1.7-0.8l-0.6,0.8c0.5,0.4,1.3,0.8,2,1L76.5,222.9z M74.2,221.4c-0.4-0.5-0.7-1-0.9-1.5l-0.9,0.3
					c0.2,0.7,0.6,1.3,1.2,1.9L74.2,221.4z M72.9,219L72.9,219v-1.9h-1v1.2L72.9,219z M72.8,216.1h-1v-2h1V216.1z M72.8,213.1h-1v-2
					h1V213.1z"/>
				<g id="Group_4_" transform="translate(138.000000, 95.000000)">
					<path id="Shape_18_" fill-rule="evenodd" clip-rule="evenodd" fill="#FFDBA7" d="M76,86.3c1.9,5,14.2,12,19.9,11.8
						c15.7-0.7,19.7-1.1,20.3,13.3c0,0.6,0.1,2.4,0.1,4.9c-7.5,8-16.5,12.6-26.8,16.8h-58c-9.4-3.9-18.3-7.7-25.5-14.8
						c0-3.1,0-5.4,0-6C6.7,97.2,10,97.1,26,97.7c4.9,0.2,17.3-7.7,18.7-11.4c1.4-3.8,1.5-9.7,0.5-13.6L60.3,73l15.1-0.3
						C74.7,76.5,74.7,82.5,76,86.3z"/>
					<polygon id="Shape_19_" fill-rule="evenodd" clip-rule="evenodd" fill="#AAAAAA" points="42.3,89 60.4,91 78.6,88.9 77,135 
						44.2,135 					"/>
					<g id="Shape_20_" transform="translate(33.541540, 36.494346)">
						<path fill-rule="evenodd" clip-rule="evenodd" fill="#FFDBA7" d="M9.3,24.1l0.8-10.5c-1.6-1.5-2.6-2.5-3.5-3.8
							C4.4,6.3,3.1,5.6,1.7,6.6C1.2,7,1,8.2,1.3,9.9c0.5,2.9,2.3,7.1,2.9,9.6C4.7,21.5,7.3,28.3,9.3,24.1z"/>
						<path fill-rule="evenodd" clip-rule="evenodd" fill="#FFDBA7" d="M44.2,24.1l-0.8-10.5c1.6-1.5,2.6-2.5,3.5-3.8
							c2.2-3.5,3.6-4.2,4.9-3.3c0.5,0.4,0.7,1.7,0.4,3.4c-0.5,2.9-2.3,7.1-2.9,9.6C48.8,21.5,46.1,28.3,44.2,24.1z"/>
					</g>
					<path id="Shape_21_" fill-rule="evenodd" clip-rule="evenodd" fill="#EEBE69" d="M44.6,87.8c1.4,0.3,2.5,9.1,7.7,7.5
						c2.6-5.5,5.2-10,9.2-11.5c2.7-1.1,4.6-1,6.8-2.7c1.8-1.4,4.1-4.5,6.8-6.6c0.1-0.8,0.2-1.1,0.4-1.8L60.4,73l-15.1-0.3
						C45.7,74.3,46.7,82.3,44.6,87.8z"/>
					<path id="Shape_22_" fill-rule="evenodd" clip-rule="evenodd" fill="#FFDBA7" d="M60.6,81.7c-0.1,0-0.2,0-0.2,0
						c-3.1,0-4.7,0-6.4-0.7c-1.7-0.7-2.4-2.3-4.7-4.5c-1.9-1.9-5.3-3.8-6.2-5.8c-1.2-2.7-0.7-5.8-1.5-10.1c-0.5-3.5-2.2-6.6-2.4-9.9
						c-0.2-3.7,0.4-7.5,0.3-11.7c-0.1-4.1-0.2-7.5,0.3-10.5c0.5-3,1.7-5.4,4-7.5l0,0c1.3-1.2,2.8-2.1,4.4-3l0,0
						c0.1,0,0.2-0.1,0.3-0.1c0.1,0,0.1-0.1,0.2-0.1s0.2-0.1,0.2-0.1c0.1,0,0.2-0.1,0.2-0.1c0.1,0,0.2-0.1,0.3-0.1
						c0.1,0,0.1-0.1,0.2-0.1s0.2-0.1,0.3-0.1c0,0,0.1,0,0.2-0.1c0.2-0.1,0.3-0.1,0.5-0.2l0,0c4.3-1.6,9.1-2,13.7-1.3
						c4.6,0.6,8.9,2.5,12.2,5.4c2.3,2.1,3.5,4.5,4,7.4s0.4,6.2,0.3,10.4c-0.1,4.2,0.5,7.9,0.3,11.6c-0.2,3.5-1.8,6.6-2.3,9.9
						c-0.7,4.3-0.2,7.4-1.4,10.1c-0.8,2-4.3,4-6.2,5.8c-2.2,2.2-3,3.8-4.7,4.5C65,81.6,63.5,81.7,60.6,81.7z"/>
					<g id="Shape_23_" transform="translate(40.878752, 76.090833)">
						<path fill-rule="evenodd" clip-rule="evenodd" fill="#E2E3E6" d="M34.3,6.3c0.4,3.2,1.4,4.6,3.6,6.2l-9,15.5l-9.5-13.5
							C23.9,12,32.4,8.7,34.3,6.3z"/>
						<path fill-rule="evenodd" clip-rule="evenodd" fill="#E2E3E6" d="M4.5,6.3C4.1,9.4,3.2,10.9,1,12.5L10,28l9.5-13.5
							C14.8,12,6.3,8.7,4.5,6.3z"/>
					</g>
					<path id="Shape_24_" fill-rule="evenodd" clip-rule="evenodd" fill="#BFD6C6" d="M78.3,88.7c4.1,3.5,14.7,7.2,20.1,7
						c15.7-0.6,20,1.1,21.2,12.9c0,0.5,0.1,19.4,0.1,26.4H65.6C69.5,120.2,74.8,99.2,78.3,88.7z"/>
					<path id="Shape_25_" fill-rule="evenodd" clip-rule="evenodd" fill="#BFD6C6" d="M42.3,88.7c-4.1,3.5-14.6,7.2-20.1,7
						C6.4,95,2.1,96.7,1,108.6C1,109,0.9,128,0.9,135h54.2C51.1,120,45.7,99,42.3,88.7z"/>
					<polygon id="Shape_26_" fill-rule="evenodd" clip-rule="evenodd" fill="#B1C5E0" points="60.7,91.4 65.4,98.4 65.3,100.1 
						61.5,104.1 65.7,111.2 64.3,135 56.4,135 54.8,111.1 59.1,104.1 55.3,100.1 55.2,98.3 59.9,91.3 					"/>
					<polygon id="Shape_27_" fill-rule="evenodd" clip-rule="evenodd" fill="#A3BAD3" points="60.7,91.4 65.4,98.4 65.3,100.1 
						61.5,104.1 65.7,111.2 64.3,135 60.3,135 60.3,91.3 					"/>
					<path id="Shape_28_" fill-rule="evenodd" clip-rule="evenodd" fill="#D1E4D8" d="M78.3,88.7c2,1.7,5.6,3.5,9.2,4.8l-0.2,0.1
						l0.4,19.9l-8.5-1l4.9,6.7L77.3,135H65.4C69.5,120.1,74.8,99.1,78.3,88.7z"/>
					<path id="Shape_29_" fill-rule="evenodd" clip-rule="evenodd" fill="#D1E4D8" d="M42.3,88.7c-2,1.7-5.6,3.5-9.2,4.8l0.2,0.1
						l-0.4,19.9l8.5-1l-4.9,6.7l7.4,15.9h11.3C51.1,120,45.7,99.1,42.3,88.7z"/>
					<path id="Shape_30_" fill-rule="evenodd" clip-rule="evenodd" fill="#3A3A3A" d="M45,26.8c-1.5,1.8-4.4,12.4-3.9,24
						c-4.9-18.1-7.7-31.1,3.1-39.2c14.2-10.7,31.7-2.2,32.5,0.3c10.4,5.8,6.8,22,3.7,36.4c-0.1-7.2-1.6-16.2-5.1-22.4
						c-0.8-0.8-1.8-1.4-2.6-1C40.3,38.5,46.4,25.2,45,26.8z"/>
				</g>
				<g id="Group_5_" transform="translate(267.000000, 91.000000)">
					<path id="Shape_31_" fill-rule="evenodd" clip-rule="evenodd" fill="#FFFAD2" d="M46.9,23.6h-42c-2,0-3.7,1.7-3.7,3.7v26.7
						c0,2,1.7,3.7,3.7,3.7h42c2,0,3.7-1.7,3.7-3.7V27.4C50.6,25.3,48.9,23.6,46.9,23.6z"/>
					<polygon id="Shape_32_" fill-rule="evenodd" clip-rule="evenodd" fill="#FFFAD2" points="18.5,30.3 6.6,6.1 6.5,29.1 					"/>
					<g id="Rectangle-path_2_" transform="translate(3.754125, 22.285714)">
						<rect x="1.2" y="6.4" fill-rule="evenodd" clip-rule="evenodd" fill="#FFFAD2" width="42.1" height="1.2"/>
						<rect x="1.2" y="10.9" fill-rule="evenodd" clip-rule="evenodd" fill="#FFFAD2" width="42.1" height="1.2"/>
						<rect x="1.2" y="15.6" fill-rule="evenodd" clip-rule="evenodd" fill="#FFFAD2" width="42.1" height="1.2"/>
						<rect x="1.2" y="20" fill-rule="evenodd" clip-rule="evenodd" fill="#FFFAD2" width="42.1" height="1.2"/>
						<rect x="1.2" y="24.6" fill-rule="evenodd" clip-rule="evenodd" fill="#FFFAD2" width="42.1" height="1.2"/>
						<rect x="1.2" y="29.4" fill-rule="evenodd" clip-rule="evenodd" fill="#FFFAD2" width="42.1" height="1.2"/>
					</g>
				</g>
				<path id="Shape_33_" fill-rule="evenodd" clip-rule="evenodd" fill="#C6C6C6" d="M155.8,127h1v2.1h-1V127z M241.8,117.1h-1.6v1
					h1.6V117.1z M239.2,117.1v1h-2.1v-1H239.2z M236,117.1v1H234v-1H236z M232.9,117.1v1h-2.1v-1H232.9z M229.8,117.1v1h-2.1v-1
					H229.8z M226.7,117.1v1h-2.1v-1H226.7z M223.5,117.1v1h-2.1v-1H223.5z M220.4,117.1v1h-2.1v-1H220.4z M217.3,117.1v1h-2.1v-1
					H217.3z M214.2,117.1v1h-2.1v-1H214.2z M211,117.1v1H209v-1H211z M207.9,117.1v1h-2.1v-1H207.9z M204.8,117.1v1h-2.1v-1H204.8z
					 M201.7,117.1v1h-2.1v-1H201.7z M198.6,117.1v1h-2.1v-1H198.6z M195.4,117.1v1h-2.1v-1H195.4z M192.3,117.1v1h-2.1v-1H192.3z
					 M189.2,117.1v1h-2.1v-1H189.2z M186.1,117.1v1H184v-1H186.1z M182.9,117.1v1h-2.1v-1H182.9z M179.8,117.1v1h-2.1v-1H179.8z
					 M176.7,117.1v1h-2.1v-1H176.7z M173.6,117.1v1h-2.1v-1H173.6z M170.4,117.1v1h-2.1v-1H170.4z M167.3,117.1v1h-2.1v-1H167.3z
					 M164.2,117.1v1h-2.1v-1H164.2z M161.1,117.1v1H159v-1H161.1z M157.7,117.8c-0.5,0.5-1,1.3-1.2,1.9l0.9,0.4
					c0.2-0.5,0.6-1.1,1-1.6L157.7,117.8z M156.1,120.7c-0.1,0.5-0.2,1-0.2,1.6v0.6h1v-0.6c0-0.4,0.1-0.9,0.2-1.4L156.1,120.7z
					 M155.8,123.9h1v2.1h-1V123.9z"/>
				<path id="Shape_34_" fill-rule="evenodd" clip-rule="evenodd" fill="#C6C6C6" d="M71.8,60.1h1v2.1h-1V60.1z M157.8,50.1h-1.6v1
					h1.6V50.1z M155.2,50.1v1h-2.1v-1H155.2z M152,50.1v1h-2.1v-1H152z M148.9,50.1v1h-2.1v-1H148.9z M145.8,50.1v1h-2.1v-1H145.8z
					 M142.6,50.1v1h-2.1v-1H142.6z M139.5,50.1v1h-2.1v-1H139.5z M136.4,50.1v1h-2.1v-1H136.4z M133.3,50.1v1h-2.1v-1H133.3z
					 M130.1,50.1v1h-2.1v-1H130.1z M127,50.1v1h-2.1v-1H127z M123.9,50.1v1h-2.1v-1H123.9z M120.8,50.1v1h-2.1v-1H120.8z
					 M117.6,50.1v1h-2.1v-1H117.6z M114.5,50.1v1h-2.1v-1H114.5z M111.4,50.1v1h-2.1v-1H111.4z M108.2,50.1v1h-2.1v-1H108.2z
					 M105.1,50.1v1H103v-1H105.1z M102,50.1v1h-2.1v-1H102z M98.9,50.1v1h-2.1v-1H98.9z M95.7,50.1v1h-2.1v-1H95.7z M92.6,50.1v1
					h-2.1v-1H92.6z M89.5,50.1v1h-2.1v-1H89.5z M86.4,50.1v1h-2.1v-1H86.4z M83.2,50.1v1h-2.1v-1H83.2z M80.1,50.1v1H78v-1H80.1z
					 M77,50.1v1h-2.1v-1H77z M73.6,50.8c-0.5,0.5-1,1.2-1.3,1.9l0.9,0.4c0.2-0.5,0.6-1.1,1-1.6L73.6,50.8z M72,53.8
					c-0.1,0.5-0.2,1-0.2,1.6v0.6h1v-0.6c0-0.4,0.1-0.9,0.2-1.3L72,53.8z M71.8,57h1V59h-1V57z"/>
				<path id="Shape_35_" fill-rule="evenodd" clip-rule="evenodd" fill="#C6C6C6" d="M259.8,101.2h-1v-2h1V101.2z M240.8,117.1h0.1
					v-1h-0.1V117.1z M241.9,117.1v-1h2.1v1H241.9z M245,117.1v-1h2.1v1H245z M248.1,117.1v-1h2.1v1H248.1z M251.2,117.1v-1h2.1v1
					H251.2z M254.3,117.1v-1h0.6c0.4,0,0.8-0.1,1.2-0.2l0.4,0.9c-0.5,0.2-1,0.3-1.5,0.3H254.3z M257.5,116.3c0.6-0.4,1.1-1,1.5-1.6
					l-0.9-0.5c-0.3,0.5-0.7,1-1.2,1.3L257.5,116.3z M259.5,113.6c0.2-0.5,0.2-1.1,0.2-1.6v-0.5h-1v0.5c0,0.4-0.1,0.9-0.2,1.3
					L259.5,113.6z M259.8,110.4h-1v-2h1V110.4z M259.8,107.3h-1v-2h1V107.3z M259.8,104.2h-1v-2h1V104.2z"/>
				<path id="Shape_36_" fill-rule="evenodd" clip-rule="evenodd" fill="#C6C6C6" d="M176.8,35.2h-1v-2h1V35.2z M157.8,51.1h0.1v-1
					h-0.1V51.1z M158.9,51.1v-1h2.1v1H158.9z M162,51.1v-1h2.1v1H162z M165.1,51.1v-1h2.1v1H165.1z M168.2,51.1v-1h2.1v1H168.2z
					 M171.3,51.1v-1h0.6c0.4,0,0.8-0.1,1.2-0.2l0.4,0.9c-0.5,0.2-1,0.3-1.5,0.3H171.3z M174.5,50.3c0.6-0.4,1.1-1,1.5-1.6l-0.9-0.5
					c-0.3,0.5-0.7,1-1.2,1.3L174.5,50.3z M176.5,47.6c0.2-0.5,0.2-1.1,0.2-1.6v-0.5h-1v0.5c0,0.4-0.1,0.9-0.2,1.3L176.5,47.6z
					 M176.8,44.4h-1v-2h1V44.4z M176.8,41.3h-1v-2h1V41.3z M176.8,38.2h-1v-2h1V38.2z"/>
				<path id="Shape_37_" fill-rule="evenodd" clip-rule="evenodd" fill="#C6C6C6" d="M259.8,95.1h1.1v2h-1.1V95.1z M294.8,79.1h-0.1
					v1h0.1V79.1z M293.6,79.1v1h-2.1v-1H293.6z M290.5,79.1v1h-2.1v-1H290.5z M287.3,79.1v1h-2.1v-1H287.3z M284.1,79.1v1H282v-1
					H284.1z M281,79.1v1h-2.1v-1H281z M277.8,79.1v1h-2.1v-1H277.8z M274.7,79.1v1h-2.1v-1H274.7z M271.5,79.1v1h-2.1v-1H271.5z
					 M268.4,79.1v1h-2.1v-1H268.4z M265.2,79.1v1h-0.6c-0.4,0-0.8,0.1-1.3,0.2l-0.4-0.9c0.5-0.2,1.1-0.3,1.6-0.3H265.2z M262,79.9
					c-0.6,0.4-1.2,1-1.6,1.7l0.9,0.5c0.3-0.5,0.7-1,1.3-1.3L262,79.9z M260,82.7c-0.2,0.5-0.2,1.1-0.2,1.6v0.5h1.1v-0.5
					c0-0.4,0.1-0.9,0.2-1.3L260,82.7z M259.8,85.9h1.1v2h-1.1V85.9z M259.8,88.9h1.1v2h-1.1V88.9z M259.8,92h1.1v2h-1.1V92z"/>
				<path id="Shape_38_" fill-rule="evenodd" clip-rule="evenodd" fill="#C6C6C6" d="M176.8,28.1h1.1v2h-1.1V28.1z M211.8,12.1h-0.1
					v1h0.1V12.1z M210.6,12.1v1h-2.1v-1H210.6z M207.5,12.1v1h-2.1v-1H207.5z M204.3,12.1v1h-2.1v-1H204.3z M201.1,12.1v1H199v-1
					H201.1z M198,12.1v1h-2.1v-1H198z M194.8,12.1v1h-2.1v-1H194.8z M191.7,12.1v1h-2.1v-1H191.7z M188.5,12.1v1h-2.1v-1H188.5z
					 M185.4,12.1v1h-2.1v-1H185.4z M182.2,12.1v1h-0.6c-0.4,0-0.8,0.1-1.3,0.2l-0.4-0.9c0.5-0.2,1.1-0.3,1.6-0.3H182.2z M179,12.9
					c-0.6,0.4-1.2,1-1.6,1.7l0.9,0.5c0.3-0.5,0.7-1,1.3-1.3L179,12.9z M177,15.7c-0.2,0.5-0.2,1.1-0.2,1.6v0.5h1.1v-0.5
					c0-0.4,0.1-0.9,0.2-1.3L177,15.7z M176.8,18.9h1.1v2h-1.1V18.9z M176.8,21.9h1.1v2h-1.1V21.9z M176.8,25h1.1v2h-1.1V25z"/>
				<g id="Group_6_" transform="translate(39.000000, 62.000000)">
					<path id="Shape_39_" fill-rule="evenodd" clip-rule="evenodd" fill="#FFDBA7" d="M17.2,51.1c1.7,10.2,1.2,16.9-1.3,23.5
						C10,90.8,2.3,95.6,1.3,104.2c-0.4,3.8,0.2,23,3,35.8H63l-6.4-37c-2.7-3.6-13.3-17.2-13.4-17.5c-0.7-3.3,0.7-3,1.1-8.8
						c0.2-3.3-1.2-4.7,0-6.6c1.7-2.7,7.7-1.9,11.7-2.7L26.5,38.6L17.2,51.1z"/>
					<path id="Shape_40_" fill-rule="evenodd" clip-rule="evenodd" fill="#3A3A3A" d="M16,74.5C10.1,90.6,2.4,95.5,1.4,104
						c-0.4,3.8,0.2,23,3,35.8h61.5l4-24.3c-4-8.8-26-30.1-26.7-30.4L16,74.5z"/>
					<path id="Shape_41_" fill-rule="evenodd" clip-rule="evenodd" fill="#EEBE69" d="M43.5,81c0.3-0.9,0.5-2.3,0.7-4.5
						c0.2-3.3-1.2-4.7,0-6.6c1.7-2.7,7.7-1.9,11.7-2.7L26.6,38.5l-2.4,3.3C26,56,34.7,71,43.5,81z"/>
					<path id="Shape_42_" fill-rule="evenodd" clip-rule="evenodd" fill="#FFDBA7" d="M58.9,50.2c-0.1,1.4,0.2,2.2,1.5,3
						c0.3,0.9-0.2,2.1-1.3,2.5c0.9,0.6,1.6,1.8,0.9,3.2c-0.8,0.3-1.3,0.7-1.3,1.2c-0.1,1.4,2.7,3.9,0.9,6.5c-2,3.2-15.7-1.5-22-3.6
						c-5.3-1.8-4.1-5.4-4.3-10.8c-2.7,0.7-5,0.2-5.8-4.2c-4.4-4.6-6.2-8.8-9.2-14.2c0,0,6-24.7,6.5-24.9c0.5-0.2,19-0.3,19-0.3
						c2.6,3.2,6.7,6,9.6,9.7c4,5.3,3.9,10.6,4.9,13.2c0.9,2.2,0.7,3.4,0.4,4.5c-0.2,0.5-0.5,1.3-0.4,1.8c0.6,4.5,5.5,7.8,5.4,9.1
						C64,48,62.1,50.1,58.9,50.2z"/>
					<path id="Shape_43_" fill-rule="evenodd" clip-rule="evenodd" fill="#1C1C1C" d="M57,24.8c-3.4-2.7-14.1-8.4-17.5-1.9
						c-0.8,1.5,2,1.9,1.9,5.6c-0.1,2.5-1.5,3.9-1.8,6.1c-0.4,3.2,0.9,4.5-0.2,9.3l-2.4-0.6c-2.3-2.3-8-7.7-11.5-6.1
						c-2.6,1.3-0.9,6.2,1.4,9.6c1.3,1.8,1.5,3.8,1.2,5.2c-0.8,3-3.6,1.8-6.1,4.9c-2,2.4-2.9,6.1-3.8,7.8c-2.4-7.1-3.3-9.5-6.3-13.7
						c-5.1-7-8.2-23.4-1.2-29.1C15.2,11.2,22.4,7.3,30.8,6.4C43,5.2,56.7,11.2,57,24.8z"/>
					<path id="Shape_44_" fill-rule="evenodd" clip-rule="evenodd" fill="#90ABC4" d="M14.4,78.3C8.7,91.5,2.2,96.2,1.3,104.2
						c-0.4,3.8,0.2,23,3,35.8h68c0.3-12.7,0.8-17.9-1.5-23.1C55.4,95.5,34,84.8,14.4,78.3z"/>
					<path id="Shape_45_" fill-rule="evenodd" clip-rule="evenodd" fill="#A3BAD3" d="M72.4,139.9c0.3-12.7,0.8-17.9-1.5-23.1
						c-5.6-7.7-12.1-14-18.9-19.3l-8.3,5c3.6,11.8,5.7,16.1-3.6,25.1c1.3,6.1,2,9.4,2.5,12.3H72.4z"/>
					<path id="Shape_46_" d="M17.6,66.7c-1.6,4.6-2.6,7.3-4.7,11.7C22.7,80.7,39.4,89,45.9,89c-1.9-4.2-3.4-5.2-2.9-8.9
						C33.8,76.2,26.3,71.5,17.6,66.7z"/>
					<path id="Shape_47_" fill-rule="evenodd" clip-rule="evenodd" fill="#A8BBCC" d="M14.4,78.3c-1.2,2.7-2.3,5.1-3.6,7.2
						c4.4,4.7,18,8.9,24.8,13l3.5-5l2.4,8.9c7.5,3.2,22.4,8.2,30.3,17.1c-0.2-0.9-0.5-1.8-0.9-2.6C55.4,95.5,34,84.8,14.4,78.3z"/>
				</g>
				<g id="Group_7_" transform="translate(93.000000, 143.000000)">
					<path id="Shape_48_" fill-rule="evenodd" clip-rule="evenodd" fill="#B3CEBC" d="M41.2,29.9C38.8,19.7,34.9,11,22.3,6.5
						c4.7,8,4.1,17.6,2.5,26.3L41.2,29.9z"/>
					<path id="Shape_49_" fill-rule="evenodd" clip-rule="evenodd" fill="#B3CEBC" d="M47,82.1H27.3C12.8,82.1,1,70.2,1,55.6
						s11.9-26.5,26.4-26.5H47c14.5,0,26.4,11.9,26.4,26.5S61.4,82.1,47,82.1z"/>
					<g id="Rectangle-path_3_" transform="translate(12.038351, 36.911582)">
						<rect x="1.2" y="31.8" fill-rule="evenodd" clip-rule="evenodd" fill="#B3CEBC" width="47.9" height="1.7"/>
						<rect x="1.2" y="25.5" fill-rule="evenodd" clip-rule="evenodd" fill="#B3CEBC" width="47.9" height="1.7"/>
						<rect x="1.2" y="18.9" fill-rule="evenodd" clip-rule="evenodd" fill="#B3CEBC" width="47.9" height="1.7"/>
						<rect x="1.2" y="12.6" fill-rule="evenodd" clip-rule="evenodd" fill="#B3CEBC" width="47.9" height="1.7"/>
						<rect x="1.2" y="6.2" fill-rule="evenodd" clip-rule="evenodd" fill="#B3CEBC" width="47.9" height="1.7"/>
					</g>
				</g>
				<g id="Group_8_" transform="translate(58.000000, 15.000000)">
					<path id="Shape_50_" fill-rule="evenodd" clip-rule="evenodd" fill="#D1E4D8" d="M14.7,33c7.5,0,13.6-6,13.6-13.4
						S22.2,6.3,14.7,6.3s-13.6,6-13.6,13.4S7.2,33,14.7,33z"/>
					<g id="Shape_51_" transform="translate(4.220923, 9.321429)">
						<path fill-rule="evenodd" clip-rule="evenodd" fill="#A3BAD3" d="M6.5,8.3c0.8-2.6,5.6-2.1,5.7,1.4c0.5-0.4,2.7-0.3,3.1,1.8
							c0.1,0.6,0.3,2.9-1.8,2.9H3.2c-1.9,0-2.2-1-2.2-2.1c0-1.2,1.4-2,2.5-1.8C2.4,9.1,4.8,7.4,6.5,8.3z"/>
						<path fill-rule="evenodd" clip-rule="evenodd" fill="#B1C5E0" d="M12.5,7.5c0.7-2.2,4.7-1.8,4.9,1.2c0.5-0.3,2.3-0.2,2.6,1.4
							c0.1,0.5,0.2,2.5-1.6,2.5H9.7c-1.7,0-1.9-0.9-1.9-1.8c0-1,1.2-1.7,2.1-1.5C9,8,11,6.7,12.5,7.5z"/>
					</g>
				</g>
				<g id="Group_9_" transform="translate(179.000000, 40.000000)">
					<path id="Shape_52_" fill-rule="evenodd" clip-rule="evenodd" fill="#DEEEFC" d="M43.6,71.7C20.1,71.7,1,57,1,39
						S20.1,6.7,43.6,6.2C72.2,5.7,86.2,19.4,86.2,39C86.3,57,67.2,71.7,43.6,71.7z"/>
					<g id="Shape_53_" transform="translate(18.008328, 27.718582)">
						<path fill-rule="evenodd" clip-rule="evenodd" fill="#FFFFFF" d="M45.1,17.4c3.1,0,5.5-2.4,5.5-5.5s-2.4-5.5-5.5-5.5
							c-3.1,0-5.5,2.4-5.5,5.5C39.6,14.8,42.1,17.4,45.1,17.4z"/>
						<path fill-rule="evenodd" clip-rule="evenodd" fill="#FFFFFF" d="M6.5,17.4c3.1,0,5.5-2.4,5.5-5.5S9.6,6.3,6.5,6.3
							S1,8.8,1,11.9C1,14.8,3.5,17.4,6.5,17.4z"/>
						<path fill-rule="evenodd" clip-rule="evenodd" fill="#FFFFFF" d="M25.8,17.4c3.1,0,5.5-2.4,5.5-5.5s-2.4-5.5-5.5-5.5
							s-5.5,2.4-5.5,5.5C20.3,14.8,22.8,17.4,25.8,17.4z"/>
					</g>
					<polygon id="Shape_54_" fill-rule="evenodd" clip-rule="evenodd" fill="#DEEEFC" points="66.4,16.4 106.4,10.5 82.6,32 					
						"/>
				</g>
				<g id="Group_10_" transform="translate(274.000000, 1.000000)">
					<g id="Shape_55_">
						<path fill-rule="evenodd" clip-rule="evenodd" fill="#703100" d="M41.4,10.4c3.3-3,8.2-1.6,11.1,2.2c3.4,4.2,3.8,9.1,3,13.7
							C55.4,45.4,44,53.6,40.7,72.5l-12.5-3.6c-4.5-14.8-11.1-19.5-14.5-32.3C8.5,16.8,18.9,10.9,30.3,12c3.5,0.3,7.3,0.5,10.9,1.1
							c-0.4-0.7-1-1.4-1.4-2L41.4,10.4z"/>
						<path fill-rule="evenodd" clip-rule="evenodd" fill="#FDAA10" d="M24.6,68c0.7-1.6,1.3-2.2,3.3-2.3l1.1,3.5L26.5,71l-1.9-0.2
							V68z"/>
						<path fill-rule="evenodd" clip-rule="evenodd" fill="#FDAA10" d="M45.6,68c-0.7-1.6-1.3-2.2-3.3-2.3l-1.1,3.5l2.4,1.9l1.9-0.2
							V68z"/>
						<path fill-rule="evenodd" clip-rule="evenodd" fill="#FFDBA7" d="M25.7,55c1.7,6.5,1.5,13.4-1,16.5c-0.6,0.7-3.2,1.4-5.9,1.9
							c-3.7,0.7-8.4,1.3-10.4,1.7c-5.6,1.2-6.4,8.4-6,11.4c0.4,3.9,3.9,3.2,4.9,6.4c0.2,0.7,0.5,2.4,0.7,4.3
							c2.3,1.3,4.9,2.4,7.4,3.4h40.7c1.5-0.5,2.9-1.2,4.2-1.8l0.8-7.2l8.6-5.9c-0.1-13.8-14-10.2-21.2-13.2
							c-5.8-2.3-6.4-7.3-5.9-17.3L25.7,55z"/>
						<path fill-rule="evenodd" clip-rule="evenodd" fill="#FDC00F" d="M70.4,100.6c0-5.6-0.4-17.7-1.1-20.1
							c-0.5-2.2-2.8-4.6-4.8-5.6c-3.9-1.9-9.3-1.3-13.7-1.8c-0.5-0.1-1.2-0.3-1.7-0.5c-2.5-1.1-3.5-3.5-4.3-5.7
							c0.6,7.2-2.5,22.6-5.4,33.8h30.9V100.6z"/>
						<path fill-rule="evenodd" clip-rule="evenodd" fill="#EEBE69" d="M25.7,55c1.6,7,1.9,13.2-1.7,16.8c0.4-0.1,0.8,14.7,2.9,26.8
							h5.2c-0.8-4-1.8-8.2-2.6-12c-1.6-7.1-1.5-12.6-1.5-13.4c0-1.6,11.8-7.2,14.6-13.4c0-1.9,0.1-2,0.2-4.4L25.7,55z"/>
						<path fill-rule="evenodd" clip-rule="evenodd" fill="#FDC00F" d="M32.5,100.6c-3.4-11-7.5-23.9-7.3-31.1
							c-0.1,0.2,0.1-1.5,0-1.3c-1.2,3.8-2.4,4.5-6.4,5.3c-2.2,0.4-4.9,0.6-7.1,0.8c-4.9,0.1-7.3,1.4-9.1,5.9
							c-1.1,2.6-1.4,15.1-1.4,20.4H32.5z"/>
						<path fill-rule="evenodd" clip-rule="evenodd" fill="#FFDD78" d="M25.2,66.8c-4.1,3.8-4.5,4.2-9.6,6.4c2.8,2.5,5.5,5,8.4,7.5
							l-6,1.7c2.1,4.1,6.3,12.3,9.1,18.1h5.4C29.7,91.3,25.8,77.9,25.2,66.8z"/>
						<path fill-rule="evenodd" clip-rule="evenodd" fill="#FFDD78" d="M44.9,66.8c4.1,3.8,4.5,4.2,9.6,6.4c-2.8,2.5-5.5,5-8.4,7.5
							l6,1.8c-2.2,4.4-4.9,12.3-7.2,18h-5.5C41.7,91,44.3,76.9,44.9,66.8z"/>
						<path fill-rule="evenodd" clip-rule="evenodd" fill="#FFDBA7" d="M17.9,33.4c-1.6-2.4-3.5-0.7-2.9,2.1c0.4,2.3,1.6,5,2.1,7.7
							c0.4,1.8,1.1,3.2,2.6,2.7l-0.2-7.6L17.9,33.4z"/>
						<path fill-rule="evenodd" clip-rule="evenodd" fill="#E8A476" d="M16.9,33.7c-0.7-0.5-1.3-0.1-1.5,0.7
							c-0.2,1.3,1.1,3.8,1.5,5.3c-0.1-2.1-1.4-4.1-1.2-5.3c0.2-0.7,0.7-0.8,1.3-0.2C17,34.1,17,33.9,16.9,33.7z"/>
						<path fill-rule="evenodd" clip-rule="evenodd" fill="#FFDBA7" d="M51.2,33.4c1.6-2.4,3.5-0.7,2.9,2.1c-0.4,2.3-1.6,5-2.1,7.7
							c-0.4,1.8-1.1,3.2-2.6,2.7l0.2-7.6L51.2,33.4z"/>
						<path fill-rule="evenodd" clip-rule="evenodd" fill="#FFDBA7" d="M41.2,58.6c2-1.8,3.5-3.4,5.3-6.3c2.2-3.6,3.1-6,4-12.1
							c0.7-4.6,1.3-9.6,0.5-14c-1.5-8.7-7.2-15.2-16.4-15.1C24.4,11,19.4,15,18,24.7c-1,6.3-0.5,10.5,0.5,15.7
							c1.2,5.9,2.2,9.3,4.8,12.8c1.6,2.2,2.9,3.7,4.5,5.2c3.3,2.8,5,4.1,6.9,4.1C36.3,62.5,38.2,61.2,41.2,58.6z"/>
						<path fill-rule="evenodd" clip-rule="evenodd" fill="#703100" d="M15.5,40.4c-4.8-7.6-6.5-21.2,1.6-28.6
							C24.6,5,35.5,4.4,42.3,9.6c-0.5,0.1,4.6,4.5,6.1,6.8c0.7,1.1,0.3,1.4-0.3,1.4c3.5,6.4,5.6,8,4.7,12.9
							c-0.3,1.9-1.7,6.8-2.8,10.3c0.5-3.8,0.6-6.8,0.8-9.6c0.2-5.3-2.6-9.5-3.4-13.2v-0.5c-0.8,1.4-2.1,2.6-3.7,3.7
							c-3.5,3.4-8.5,5.2-12.6,6.8c-2.9,1.5-5.6,3.1-8.1,5c-3.3,2.6-3.9,5.3-4,8.7c-0.6-0.8-1-2.3-1.3-3.2c-1.8,3.2-2.4,7-0.1,11.1
							C15.7,46.9,15.1,43.6,15.5,40.4z"/>
						<path fill-rule="evenodd" clip-rule="evenodd" fill="#FDAA10" d="M13.2,90.3c-2.9,1.5-4.9,5.5-5.2,10.3h2.4
							C10.6,96.7,12,92.8,13.2,90.3z"/>
						<path fill-rule="evenodd" clip-rule="evenodd" fill="#FDAA10" d="M59.1,90.3c2.9,1.5,4.9,5.5,5.2,10.3h-2.4
							C61.6,96.7,60.2,92.8,59.1,90.3z"/>
					</g>
					<g id="Shape_56_" transform="translate(11.655552, 25.828125)">
						<path fill-rule="evenodd" clip-rule="evenodd" fill="#1FACC2" d="M42.2,6.6c1.9,0.6,3.1,2.6,2.4,4.6L43,16.8
							c-0.6,1.9-2.6,3.1-4.7,2.4C36.1,18.6,39.6,6.1,42.2,6.6z"/>
						<path fill-rule="evenodd" clip-rule="evenodd" fill="#1FACC2" d="M3.8,6.6c-2,0.5-3.2,2.6-2.5,4.5l1.6,5.6
							c0.5,2,2.6,3.2,4.6,2.5C9.6,18.6,6.4,6.1,3.8,6.6z"/>
					</g>
					<path id="Shape_57_" fill-rule="evenodd" clip-rule="evenodd" fill="#1FACC2" d="M15.1,36.8V25.4c0-4.2,1.8-8.1,4.6-11
						c2.9-2.9,6.7-4.5,11-4.5h7.8c4.2,0,8.2,1.8,11,4.5c2.9,2.9,4.6,6.6,4.6,11v11.2h-1.7V25.4c0-3.8-1.6-7.3-4.1-9.8
						s-6-4.1-9.9-4.1h-7.8c-3.8,0-7.3,1.6-9.9,4.1s-4.1,6-4.1,9.8v11.4H15.1z"/>
					<path id="Shape_58_" fill-rule="evenodd" clip-rule="evenodd" fill="#1FACC2" d="M53,40.4c0,4.2-1.8,8.1-4.6,11
						c-2.9,2.9-6.7,4.5-11,4.5v-1.7c3.8,0,7.3-1.6,9.9-4.1s4.1-6,4.1-9.8H53V40.4z"/>
					<path id="Shape_59_" fill-rule="evenodd" clip-rule="evenodd" fill="#1FACC2" d="M36.8,52.9l4.7-1.1c1.2-0.3,2.3,0.4,2.6,1.7
						l0.1,0.4c0.3,1.2-0.4,2.3-1.7,2.6l-4.7,1.1c-1.2,0.3-2.3-0.4-2.6-1.7l-0.1-0.4C34.9,54.4,35.7,53.1,36.8,52.9z"/>
				</g>
				<g id="Group_11_" transform="translate(52.000000, 195.000000)">
					<path id="Shape_60_" fill-rule="evenodd" clip-rule="evenodd" fill="#B1C5E0" d="M14.2,33c7.4,0,13.4-6,13.4-13.4
						s-6-13.4-13.4-13.4s-13.4,6-13.4,13.4S6.8,33,14.2,33z"/>
					<g transform="translate(5.674451, 6.214286)">
						
							<rect id="Rectangle-path_4_" x="5.2" y="6.4" fill-rule="evenodd" clip-rule="evenodd" fill="#D1E4D8" width="10.8" height="7.6"/>
						<polygon id="Shape_61_" fill-rule="evenodd" clip-rule="evenodd" fill="#D1E4D8" points="13.5,13.6 13.5,19.3 10.6,13.7 
													"/>
						<path id="Shape_62_" fill-rule="evenodd" clip-rule="evenodd" fill="#D1E4D8" d="M14.3,9.9H6.7c-0.1,0-0.3,0.1-0.3,0.3
							c0,0.1,0.1,0.3,0.3,0.3h7.6c0.1,0,0.3-0.1,0.3-0.3S14.5,9.9,14.3,9.9z"/>
						<g id="Shape_63_" transform="translate(5.192308, 1.589286)">
							<path fill-rule="evenodd" clip-rule="evenodd" fill="#D1E4D8" d="M9.1,6.4H1.5c-0.1,0-0.3,0.1-0.3,0.3c0,0.1,0.1,0.3,0.3,0.3
								h7.6c0.1,0,0.3-0.1,0.3-0.3S9.3,6.4,9.1,6.4z"/>
							<path fill-rule="evenodd" clip-rule="evenodd" fill="#D1E4D8" d="M9.1,10.2H1.5c-0.1,0-0.3,0.1-0.3,0.3
								c0,0.1,0.1,0.3,0.3,0.3h7.6c0.1,0,0.3-0.1,0.3-0.3S9.3,10.2,9.1,10.2z"/>
						</g>
						<g transform="translate(0.000000, 4.142857)">
							
								<rect id="Rectangle-path_5_" x="1" y="6.6" fill-rule="evenodd" clip-rule="evenodd" fill="#B3CEBC" width="8.1" height="5.7"/>
							<polygon id="Shape_64_" fill-rule="evenodd" clip-rule="evenodd" fill="#B3CEBC" points="2.9,12 2.9,16.3 5.2,12.1 							
								"/>
						</g>
						<g id="Shape_65_" transform="translate(1.038462, 5.732143)">
							<path fill-rule="evenodd" clip-rule="evenodd" fill="#B3CEBC" d="M1.2,7.6h5.7c0.1,0,0.2,0.1,0.2,0.2S7,8,6.9,8H1.2
								C1.1,8,1,7.9,1,7.8S1.1,7.6,1.2,7.6z"/>
							<g>
								<path fill-rule="evenodd" clip-rule="evenodd" fill="#B3CEBC" d="M1.2,6.1h5.7c0.1,0,0.2,0.1,0.2,0.2S7,6.5,6.9,6.5H1.2
									C1.1,6.5,1,6.4,1,6.3S1.1,6.1,1.2,6.1z"/>
								<path fill-rule="evenodd" clip-rule="evenodd" fill="#B3CEBC" d="M1.2,9h5.7C7,9,7.1,9.1,7.1,9.2c0,0.1-0.1,0.2-0.2,0.2H1.2
									C1.1,9.4,1,9.3,1,9.2C1,9.1,1.1,9,1.2,9z"/>
							</g>
						</g>
					</g>
				</g>
				<g id="Group_12_" transform="translate(349.000000, 103.000000)">
					<path id="Shape_66_" fill-rule="evenodd" clip-rule="evenodd" fill="#A3BAD3" d="M14.4,33.8c7.4,0,13.4-6.1,13.4-13.6
						s-6-13.6-13.4-13.6S1,12.7,1,20.2S7,33.8,14.4,33.8z"/>
					<g transform="translate(5.674451, 6.895387)">
						<path id="Shape_67_" fill-rule="evenodd" clip-rule="evenodd" fill="#EAE3B9" d="M15.5,9.4H4.4c-0.5,0-1,0.4-1,1.1v7.2
							c0,0.5,0.4,1.1,1,1.1h11.1c0.5,0,1-0.4,1-1.1v-7.2C16.6,9.9,16.2,9.4,15.5,9.4z"/>
						<polygon id="Shape_68_" fill-rule="evenodd" clip-rule="evenodd" fill="#EAE3B9" points="8.1,11.2 5,6.3 4.8,11 						"/>
						<g id="Rectangle-path_6_" transform="translate(3.671703, 4.220923)">
							<rect x="0.8" y="6.6" fill-rule="evenodd" clip-rule="evenodd" fill="#EAE3B9" width="11.1" height="1"/>
							<rect x="0.8" y="7.8" fill-rule="evenodd" clip-rule="evenodd" fill="#EAE3B9" width="11.1" height="1"/>
							<rect x="0.8" y="9.1" fill-rule="evenodd" clip-rule="evenodd" fill="#EAE3B9" width="11.1" height="1"/>
							<rect x="0.8" y="10.2" fill-rule="evenodd" clip-rule="evenodd" fill="#EAE3B9" width="11.1" height="1"/>
							<rect x="0.8" y="11.5" fill-rule="evenodd" clip-rule="evenodd" fill="#EAE3B9" width="11.1" height="1"/>
							<rect x="0.8" y="12.8" fill-rule="evenodd" clip-rule="evenodd" fill="#EAE3B9" width="11.1" height="1"/>
						</g>
						<g id="Shape_69_" transform="translate(0.000000, 6.822612)">
							<path fill-rule="evenodd" clip-rule="evenodd" fill="#FFFAD2" d="M13.5,6.2h-8C5.1,6.2,4.6,6.5,4.6,7v5.6
								c0,0.4,0.3,0.8,0.8,0.8h8.1c0.4,0,0.8-0.3,0.8-0.8V7C14.3,6.5,14,6.2,13.5,6.2z"/>
							<polygon fill-rule="evenodd" clip-rule="evenodd" fill="#FFFAD2" points="6.4,7.9 0.9,9.8 5.3,10.9 							"/>
							<g transform="translate(6.230769, 2.674464)">
								<path fill-rule="evenodd" clip-rule="evenodd" fill="#FFFFFF" d="M1.3,7.6c0.3,0,0.5-0.2,0.5-0.5S1.6,6.6,1.3,6.6
									S0.8,6.8,0.8,7.1S1,7.6,1.3,7.6z"/>
								<path fill-rule="evenodd" clip-rule="evenodd" fill="#FFFFFF" d="M5.2,7.6c0.3,0,0.5-0.2,0.5-0.5S5.5,6.6,5.2,6.6
									c-0.3,0-0.5,0.2-0.5,0.5S4.8,7.6,5.2,7.6z"/>
								<path fill-rule="evenodd" clip-rule="evenodd" fill="#FFFFFF" d="M3.3,7.6c0.3,0,0.5-0.2,0.5-0.5S3.6,6.6,3.3,6.6
									S2.8,6.8,2.8,7.1S3,7.6,3.3,7.6z"/>
							</g>
						</g>
					</g>
				</g>
				<g id="Group_13_" transform="translate(239.000000, 2.000000)">
					<path id="Shape_70_" fill-rule="evenodd" clip-rule="evenodd" fill="#A3BAD3" d="M14.8,32.9c7.5,0,13.6-6,13.6-13.4
						S22.3,6.1,14.8,6.1s-13.6,6-13.6,13.4S7.3,32.9,14.8,32.9z"/>
					<g id="Shape_71_" transform="translate(4.220923, 6.712912)">
						<path fill-rule="evenodd" clip-rule="evenodd" fill="#EAE3B9" d="M2.2,6.2L18.7,7c0.6,0,1.3,0.6,1.2,1.2l-0.6,5.2
							c-0.1,0.7-0.5,1.2-1.2,1.2L3.6,15.3c-0.6,0-1.1-0.6-1.2-1.2L1,7.5C0.8,6.8,1.5,6.2,2.2,6.2z"/>
						<polygon fill-rule="evenodd" clip-rule="evenodd" fill="#EAE3B9" points="7.4,15 2,18.2 4.2,13.6 						"/>
						<path fill-rule="evenodd" clip-rule="evenodd" fill="#FFFAD2" d="M7.8,10.9l11.7,0.6c0.4,0,0.8,0.4,0.8,0.9l-0.4,3.6
							c-0.1,0.5-0.4,0.9-0.8,0.9L8.8,17.5c-0.4,0-0.7-0.4-0.8-0.9l-1.1-4.7C6.8,11.4,7.3,10.9,7.8,10.9z"/>
						<polygon fill-rule="evenodd" clip-rule="evenodd" fill="#FFFAD2" points="11.6,17.3 7.7,19.5 9.2,16.3 						"/>
					</g>
				</g>
				<g id="Group_14_" transform="translate(142.000000, 129.000000)">
					<circle id="Oval_1_" fill-rule="evenodd" clip-rule="evenodd" fill="#A3BAD3" cx="14.3" cy="19.6" r="13.4"/>
					<g id="Shape_72_" transform="translate(3.660714, 6.767857)">
						<path fill-rule="evenodd" clip-rule="evenodd" fill="#EAE3B9" d="M2.2,6.2l16.3,0.8c0.6,0,1.2,0.6,1.1,1.2L19,13.5
							c-0.1,0.7-0.5,1.2-1.1,1.2L3.7,15.3c-0.6,0-1-0.6-1.1-1.2L1.1,7.6C1,6.9,1.6,6.2,2.2,6.2z"/>
						<polygon fill-rule="evenodd" clip-rule="evenodd" fill="#EAE3B9" points="7.5,15 2.1,18.2 4.3,13.8 						"/>
						<path fill-rule="evenodd" clip-rule="evenodd" fill="#FFFAD2" d="M7.8,11l11.5,0.6c0.4,0,0.8,0.4,0.8,0.9l-0.4,3.6
							c-0.1,0.5-0.4,0.9-0.8,0.9l-10,0.4c-0.4,0-0.7-0.4-0.8-0.9l-1-4.7C6.9,11.5,7.4,11,7.8,11z"/>
						<polygon fill-rule="evenodd" clip-rule="evenodd" fill="#FFFAD2" points="11.5,17.3 7.7,19.6 9.3,16.4 						"/>
					</g>
				</g>
				<g id="Group_15_" transform="translate(286.000000, 159.000000)">
					<path id="Shape_73_" fill-rule="evenodd" clip-rule="evenodd" fill="#A3BAD3" d="M12,28c6,0,10.8-4.8,10.8-10.8
						S17.9,6.5,12,6.5S1.2,11.3,1.2,17.2S6,28,12,28z"/>
					<g id="Shape_74_" transform="translate(4.733333, 3.688889)">
						<g transform="translate(4.177778, 5.711111)">
							<path fill-rule="evenodd" clip-rule="evenodd" fill="#B3CEBC" d="M8.3,13.1l0.4,1.9L7,14.1c-0.6,0.3-1.3,0.5-2,0.5
								c-2.4,0-4.3-1.9-4.3-4.1c0-2.3,2-4.1,4.3-4.1c2.4,0,4.3,1.9,4.3,4.1C9.3,11.5,8.9,12.3,8.3,13.1z"/>
							<path fill-rule="evenodd" clip-rule="evenodd" fill="#FFFFFF" d="M7.1,11.1c0.3,0,0.6-0.3,0.6-0.6S7.4,9.8,7.1,9.8
								c-0.3,0-0.6,0.3-0.6,0.6C6.5,10.9,6.8,11.1,7.1,11.1z"/>
							<path fill-rule="evenodd" clip-rule="evenodd" fill="#FFFFFF" d="M2.8,11.1c0.3,0,0.6-0.3,0.6-0.6S3.2,9.8,2.8,9.8
								s-0.6,0.3-0.6,0.6C2.2,10.9,2.4,11.1,2.8,11.1z"/>
							<path fill-rule="evenodd" clip-rule="evenodd" fill="#FFFFFF" d="M4.9,11.1c0.3,0,0.6-0.3,0.6-0.6S5.3,9.8,4.9,9.8
								c-0.3,0-0.6,0.3-0.6,0.6C4.3,10.9,4.6,11.1,4.9,11.1z"/>
						</g>
						<g>
							<path fill-rule="evenodd" clip-rule="evenodd" fill="#D1E4D8" d="M2.1,14.6l-0.4,2.2l2.1-0.9c0.7,0.4,1.6,0.5,2.4,0.5
								c2.9,0,5.2-2.2,5.2-4.9S9.1,6.5,6.2,6.5S1,8.7,1,11.5C1,12.6,1.4,13.8,2.1,14.6z"/>
							<path fill-rule="evenodd" clip-rule="evenodd" fill="#FFFFFF" d="M3.5,12.2c0.4,0,0.7-0.3,0.7-0.7s-0.3-0.7-0.7-0.7
								S2.7,11,2.7,11.5S3.1,12.2,3.5,12.2z"/>
							<path fill-rule="evenodd" clip-rule="evenodd" fill="#FFFFFF" d="M8.7,12.2c0.4,0,0.7-0.3,0.7-0.7s-0.3-0.7-0.7-0.7
								C8.3,10.7,8,11,8,11.5S8.4,12.2,8.7,12.2z"/>
							<path fill-rule="evenodd" clip-rule="evenodd" fill="#FFFFFF" d="M6.1,12.2c0.4,0,0.7-0.3,0.7-0.7s-0.3-0.7-0.7-0.7
								c-0.4,0-0.7,0.3-0.7,0.7S5.7,12.2,6.1,12.2z"/>
						</g>
					</g>
				</g>
				<path id="Shape_75_" fill-rule="evenodd" clip-rule="evenodd" fill="#D1E4D8" d="M371.5,40.3v15.6l-8.4-15.6h-1.8v-4.8h12.8
					c0.4,0,0.7-0.3,0.7-0.7v-0.1c0-0.4-0.3-0.7-0.7-0.7h-12.8v-3.9h12.8c0.4,0,0.7-0.3,0.7-0.7v-0.1c0-0.4-0.3-0.7-0.7-0.7h-12.8
					v-0.2h-14.4V18.1h31.8v22.3h-7.3V40.3z M340.3,47.4v11.7l6.2-11.7h12.3V30.7h-24v16.7H340.3z M338.4,38.4
					c-0.3,0-0.6,0.2-0.6,0.6v0.1c0,0.3,0.2,0.6,0.6,0.6h16.8c0.3,0,0.6-0.2,0.6-0.6V39c0-0.3-0.2-0.6-0.6-0.6H338.4z M338.4,34.2
					c-0.3,0-0.6,0.2-0.6,0.6V35c0,0.3,0.2,0.6,0.6,0.6h16.8c0.3,0,0.6-0.2,0.6-0.6v-0.1c0-0.3-0.2-0.6-0.6-0.6H338.4z M338.4,42.6
					c-0.3,0-0.6,0.2-0.6,0.6v0.1c0,0.3,0.2,0.6,0.6,0.6h16.8c0.3,0,0.6-0.2,0.6-0.6v-0.1c0-0.3-0.2-0.6-0.6-0.6H338.4z M374.1,22.8
					h-22.3c-0.4,0-0.7,0.3-0.7,0.7v0.1c0,0.4,0.3,0.7,0.7,0.7h22.3c0.4,0,0.7-0.3,0.7-0.7v-0.1C374.8,23.2,374.5,22.8,374.1,22.8z"
					/>
				<path id="Shape_76_" fill-rule="evenodd" clip-rule="evenodd" fill="#7D94AC" d="M263.8,124.8c-0.5,0-1,0-1.6,0v12.6
					c0.4-0.4,1-0.6,1.7-0.6c1.4,0,2.5,1.2,2.5,2.5c0,1.4-1.2,2.5-2.5,2.5c-0.6,0-1.3-0.2-1.7-0.6v2.9c0,3.7-3,6.8-6.7,6.8h-4.2
					c3.3,2.2,7.6,3.6,12.5,3.7c1.4,0,2.6,0,3.9-0.1l14.3,8.6l-5.4-11.4c4.2-2.7,6.2-6.8,6.2-11.9
					C282.9,131.5,274.4,124.8,263.8,124.8z M255.6,115.1c1.9,0,3.6,1.6,3.6,3.6V144c0,1.9-1.6,3.6-3.6,3.6h-21.9l-15.2,9l4.3-9h-3.6
					c-1.9,0-3.6-1.6-3.6-3.6v-25.3c0-1.9,1.6-3.6,3.6-3.6H255.6z M220.4,123.8h34.2v1.7h-34.2V123.8z M220.4,130.4h34.2v1.7h-34.2
					V130.4z M220.4,137.2h34.2v1.7h-34.2V137.2z M272.5,136.9c1.4,0,2.5,1.2,2.5,2.5c0,1.4-1.2,2.5-2.5,2.5c-1.4,0-2.5-1.2-2.5-2.5
					C270.1,138,271.1,136.9,272.5,136.9z"/>
				<path id="Shape_77_" fill-rule="evenodd" clip-rule="evenodd" fill="#FFFAD2" d="M226.2,6.1h-27.8c-3.7,0-6.6,2.9-6.6,6.5V28
					c0,3.6,3,5.6,6.6,6.5l22.5,5.6l-10-5.6h15.4c3.7,0,6.6-2.9,6.6-6.5V12.6C232.8,9,229.8,6.1,226.2,6.1z M227,14.3v1.4h-29.4v-1.4
					H227z M227,19.8v1.4h-29.4v-1.4H227z M227,25.5v1.4h-29.4v-1.4H227z"/>
			</g>
		</g>
	</g>
</g>
</svg>
